<?xml version="1.0" encoding="UTF-8"?>
<!DOCTYPE svg PUBLIC "-//W3C//DTD SVG 1.1//EN" "http://www.w3.org/Graphics/SVG/1.1/DTD/svg11.dtd">
<!-- Creator: CorelDRAW -->
<svg xmlns="http://www.w3.org/2000/svg" xml:space="preserve" width="1.99999in" height="1.99999in" version="1.1" style="shape-rendering:geometricPrecision; text-rendering:geometricPrecision; image-rendering:optimizeQuality; fill-rule:evenodd; clip-rule:evenodd"
viewBox="0 0 2000 2000"
 xmlns:xlink="http://www.w3.org/1999/xlink">
 <defs>
  <style type="text/css">
   <![CDATA[
    .fil0 {fill:#000002}
   ]]>
  </style>
 </defs>
 <g id="Layer_x0020_1">
  <metadata id="CorelCorpID_0Corel-Layer"/>
  <path class="fil0" d="M327 1647l0 -189c0,-13 11,-23 23,-23 13,0 23,10 23,23l0 189 225 0 0 -202 -114 -130 -72 0c-121,0 -220,114 -220,255l0 77 0 0 135 0zm670 -456c-5,0 -9,-1 -13,-4 -9,-6 -12,-17 -8,-27l69 -180 -29 0c-31,0 -56,-25 -56,-56l0 -560c0,-31 25,-56 56,-56l781 0c31,0 56,25 56,56l0 560c0,31 -25,56 -56,56l-520 0 -266 206c-4,4 -9,5 -14,5zm19 -838c-5,0 -10,5 -10,11l0 560c0,6 5,11 10,11l62 0c7,0 14,4 19,10 4,6 5,14 2,21l-52 135 209 -161c4,-3 8,-5 13,-5l528 0c6,0 11,-5 11,-11l0 -560c0,-6 -5,-11 -11,-11l-781 0zm391 396c-13,0 -23,-10 -23,-23l0 -146c0,-12 10,-23 23,-23 9,0 17,-2 25,-5 20,-10 32,-30 32,-52 0,-32 -26,-57 -57,-57 -32,0 -58,25 -58,57 0,13 -10,23 -22,23 -13,0 -23,-10 -23,-23 0,-57 46,-103 103,-103 56,0 102,46 102,103 0,40 -22,75 -57,92 -7,4 -15,7 -23,8l0 126c0,13 -10,23 -22,23zm0 142c-31,0 -57,-25 -57,-56 0,-31 26,-57 57,-57 31,0 56,26 56,57 0,31 -25,56 -56,56zm0 -67c-6,0 -11,5 -11,11 0,6 5,11 11,11 6,0 11,-5 11,-11 0,-6 -5,-11 -11,-11zm-685 463l-14 -53c-27,11 -56,17 -87,17 -31,0 -60,-6 -88,-17l-14 53 102 115 101 -115zm-11 -103c1,-1 2,-2 3,-2 61,-34 102,-98 102,-171l0 -41c-26,-13 -74,-48 -90,-127 -49,26 -148,64 -241,11 -17,14 -48,46 -59,104l0 53c0,73 41,137 101,171 2,0 3,1 4,2 27,14 57,22 90,22 32,0 63,-8 90,-22zm39 29l15 57 64 0c147,0 266,134 266,300l0 100c0,12 -10,22 -23,22l-180 0 -271 0 -271 0 -181 0c-12,0 -22,-10 -22,-22l0 -100c0,-166 119,-300 265,-300l65 0 15 -57c-67,-42 -111,-117 -111,-202l0 -52c-22,-66 -18,-136 13,-202 9,-18 19,-36 32,-53 14,-21 32,-41 51,-59 65,-63 160,-109 205,-79 10,7 24,23 20,53 30,3 58,13 82,30 35,23 61,60 78,106 23,65 22,143 -1,205l0 51c0,85 -44,160 -111,202zm-106 434l225 0 0 -189c0,-13 10,-23 23,-23 12,0 22,10 22,23l0 189 136 0 0 -77c0,-141 -99,-255 -221,-255l-71 0 -114 130 0 202zm-232 -777c27,-43 59,-62 61,-63 7,-4 16,-4 24,1 104,71 233,-20 234,-21 7,-5 16,-6 23,-3 8,4 13,11 13,20 4,70 36,104 58,119 13,-48 11,-106 -6,-153 -13,-37 -34,-66 -60,-84 -24,-16 -53,-24 -85,-22 -8,1 -15,-3 -20,-9 -4,-7 -5,-15 -2,-22 7,-19 6,-28 4,-29 -14,-10 -83,12 -148,74 -17,16 -32,33 -45,52 -11,15 -20,31 -28,46 -14,31 -22,63 -23,94z"/>
 </g>
</svg>
