<?xml version="1.0" encoding="utf-8"?>
<!-- Generator: Adobe Illustrator 19.2.1, SVG Export Plug-In . SVG Version: 6.00 Build 0)  -->
<svg version="1.1" id="layer" xmlns="http://www.w3.org/2000/svg" xmlns:xlink="http://www.w3.org/1999/xlink" x="0px" y="0px"
	 viewBox="0 0 652 652" style="enable-background:new 0 0 652 652;" xml:space="preserve">
<style type="text/css">
	.st0{fill:#646363;}
	.st1{fill:#023F86;}
</style>
<path class="st0" d="M37.6,377.4c-7-1.7-15.7-3.6-15.7-12.7c0-8,6.8-13,16.9-13c8.4,0,17.3,4,18.8,14.3l-8,1c-0.1-2.7-0.3-4.8-3.2-7
	c-2.8-2.2-6.2-2.6-8.5-2.6c-5.8,0-8.6,3.4-8.6,6.4c0,4.2,4.7,5.5,10.5,6.9l4.2,1c5.2,1.2,14.6,3.5,14.6,12.6
	c0,7.1-6.3,13.8-18.4,13.8c-4.9,0-10-1-13.6-3.6c-1.4-1-5.7-4.6-6.5-11.9l8.4-1.3c-0.1,2-0.1,5.7,3.2,8.5c2.6,2.2,5.8,2.5,8.9,2.5
	c6.5,0,10.4-2.5,10.4-7.3c0-5.1-3.8-5.9-9.1-7C42,378.1,37.6,377.4,37.6,377.4z M105.1,352.8l10.4,32.6l11.5-32.6h7.8l-16.1,43.8
	h-6.5L101.6,364l-10.7,32.6h-6.8l-15.3-43.8h8l11,32.6l10.8-32.6H105.1z M149.1,331h7.2v8.5h-7.2V331z M149.1,352.8h7.2v43.8h-7.2
	V352.8z M191.4,377.4c-7-1.7-15.7-3.6-15.7-12.7c0-8,6.8-13,16.9-13c8.4,0,17.3,4,18.8,14.3l-8,1c-0.1-2.7-0.3-4.8-3.2-7
	c-2.8-2.2-6.2-2.6-8.5-2.6c-5.8,0-8.6,3.4-8.6,6.4c0,4.2,4.7,5.5,10.5,6.9l4.2,1c5.2,1.2,14.6,3.5,14.6,12.6
	c0,7.1-6.3,13.8-18.4,13.8c-4.9,0-10-1-13.6-3.6c-1.4-1-5.7-4.6-6.5-11.9l8.4-1.3c-0.1,2-0.1,5.7,3.2,8.5c2.6,2.2,5.8,2.5,8.9,2.5
	c6.5,0,10.3-2.5,10.3-7.3c0-5.1-3.8-5.9-9.1-7L191.4,377.4z M245.9,377.4c-7-1.7-15.7-3.6-15.7-12.7c0-8,6.8-13,16.9-13
	c8.4,0,17.3,4,18.8,14.3l-8,1c-0.1-2.7-0.3-4.8-3.2-7c-2.8-2.2-6.2-2.6-8.5-2.6c-5.8,0-8.6,3.4-8.6,6.4c0,4.2,4.7,5.5,10.5,6.9
	l4.2,1c5.2,1.2,14.6,3.5,14.6,12.6c0,7.1-6.3,13.8-18.4,13.8c-4.9,0-10-1-13.6-3.6c-1.4-1-5.7-4.6-6.5-11.9l8.4-1.3
	c-0.1,2-0.1,5.7,3.2,8.5c2.6,2.2,5.8,2.5,8.9,2.5c6.5,0,10.4-2.5,10.4-7.3c0-5.1-3.8-5.9-9.1-7L245.9,377.4L245.9,377.4z"/>
<path class="st1" d="M324.6,380.8c-0.2,1.7-0.7,4.2-2.5,7.4c-3.6,6.7-9.9,9.6-17.9,9.6c-16,0-21.8-12-21.8-22.8
	c0-12.5,6.6-23.7,21.2-23.7c7,0,17.4,2.5,20.2,14.7l-8.1,0.7c-0.3-1.7-1.9-10-11.8-10c-12.7,0-13.3,13.8-13.3,17.8
	c0,4.7,0.9,8.9,2.8,11.8c2.5,4,6.3,5.8,10.9,5.8c10.7,0,11.9-8.8,12.3-12.2L324.6,380.8z M407,352.8v6.4c4.1-7.2,11.1-7.8,13.7-7.8
	c5.6,0,12.3,2.8,14.4,10c0.7,2.6,0.7,5.3,0.7,9v26.1h-7.4v-24.9c0-4.4,0-5.8-0.5-7.3c-1.3-4.2-5.4-6-9.4-6c-3.2,0-6,1-8.4,3.3
	c-3.2,3.2-3.2,6.6-3.2,9.9v25h-7.4v-43.8L407,352.8L407,352.8z M465.2,352.8h8v6.2h-8v25.1c0,5.2,0,7.4,3.2,7.4c1.4,0,3.3-0.6,4.8-1
	v6.2c-1.3,0.2-4.3,0.7-7.2,0.7c-8.5,0-8.5-4.2-8.5-10v-28.5h-7v-6.2h7v-13.8h7.6L465.2,352.8L465.2,352.8z M585.6,380.8
	c-0.3,1.7-0.7,4.2-2.5,7.4c-3.6,6.7-9.9,9.6-17.9,9.6c-16,0-21.8-12-21.8-22.8c0-12.5,6.6-23.7,21.2-23.7c7,0,17.4,2.5,20.2,14.7
	l-8.1,0.7c-0.3-1.7-1.9-10-11.8-10c-12.7,0-13.3,13.8-13.3,17.8c0,4.7,0.9,8.9,2.8,11.8c2.5,4,6.3,5.8,10.9,5.8
	c10.7,0,11.9-8.8,12.3-12.2L585.6,380.8L585.6,380.8z M612.3,352.8h8v6.2h-8v25.1c0,5.2,0,7.4,3.2,7.4c1.4,0,3.3-0.6,4.8-1v6.2
	c-1.3,0.2-4.3,0.7-7.2,0.7c-8.5,0-8.5-4.2-8.5-10v-28.5h-7v-6.2h7v-13.8h7.6L612.3,352.8L612.3,352.8z M373.7,374.7
	c-0.1,4.4-1,17.3-13.4,17.3c-9.6,0-13.4-7.6-13.4-16.8c0-10,4-17.8,13.9-17.8c5,0,10.7,2.5,12.3,11.1
	C373.6,369.8,373.9,371.9,373.7,374.7 M360.8,351.5c-17,0-21.8,13.8-21.8,23.6c0,11.5,6.4,22.8,21.6,22.8c13.4,0,21.3-10,21.3-23.2
	C381.9,362.7,375.2,351.5,360.8,351.5 M515.3,385c-2.1,4.6-6.5,6.6-11.6,6.6c-5.5,0-8.3-3-8.3-6.5c0-3.1,1.4-6.2,9.6-7.9
	c4.7-1,8.6-1.6,11.5-2.1C516.5,381.6,516.4,382.6,515.3,385 M527,390.6c-3.1,0-3.1-2.1-3.2-6.3V370c0.1-5.8,0.1-10.9-4.7-14.8
	c-3.4-2.7-8.8-3.7-12.8-3.7c-7.4,0-12.6,3-15.2,7.8c-1.4,2.6-1.6,5-1.7,6.6l7.8,0.5c0-2.3,0-9.2,9.4-9.2c9.9,0,9.9,7.7,9.9,12.2v1.1
	l-7,0.6c-13.1,1-17.8,4-20.2,7.7c-1.3,2-2,4.3-2,6.6c0,7.4,6.3,12.6,14.9,12.6c8.4,0,12.8-4.8,15-7.2c0.7,5.4,4.2,6.5,7.7,6.5
	c2.1,0,3.4-0.5,4.7-0.7v-6.4C528.8,390.3,527.9,390.6,527,390.6 M302.8,295.9c-47.4,0-74.2-10.3-74.2-25.3c0-16.3,31-25.9,83.1-25.9
	c11.7,0,22.1,0.6,42.9,2.5v3.6c-14.5-1-23.7-1.4-37.6-1.4c-36.7,0-74.2,7.9-74.2,20.3c0,12.3,37.2,17.7,76.4,17.7
	c10.4,0,25.9-0.5,35.4-1v7.4C325.8,295.8,314.4,295.9,302.8,295.9"/>
<path class="st0" d="M344.6,261.6c47.4,0,74.2,10.3,74.2,25.4c0,16.3-31,25.9-83.1,25.9c-11.7,0-22.1-0.6-42.9-2.5v-3.6
	c14.5,1,23.7,1.4,37.5,1.4c36.7,0,74.2-7.9,74.2-20.3c0-12.3-37.2-17.7-76.4-17.7c-10.4,0-25.9,0.5-35.3,1v-7.4
	C321.6,261.6,332.9,261.6,344.6,261.6"/>
</svg>
